<svg width="128" height="128" viewBox="0 0 128 128" fill="none" xmlns="http://www.w3.org/2000/svg">
<g clip-path="url(#clip0_279_852)">
<path d="M31.0398 84.1841C35.7033 81.4917 41.5828 83.1632 45.768 86.5516C48.2675 88.5753 51.1102 90.1918 54.1951 91.3002C59.3927 93.1676 64 97.4772 64 103V118C64 123.523 59.4946 128.082 54.038 127.229C38.4285 124.79 24.689 116.708 14.9702 105.136C11.3766 100.857 13.0392 94.5765 17.8783 91.7827L31.0398 84.1841Z" fill="#3BCC65"/>
<path d="M110.765 91.0002C115.551 93.7634 117.243 99.9478 113.766 104.243C104.243 116.005 90.6351 124.323 75.1007 127.04C69.6014 128.001 65 123.42 65 117.837V102.647C65 97.2563 69.3999 93.0048 74.4301 91.0656C77.4836 89.8885 80.2877 88.2096 82.7414 86.1298C86.9516 82.5611 92.9906 80.7377 97.7704 83.4974L110.765 91.0002Z" fill="#48BFEE"/>
<path d="M30.0221 45.5374C34.692 48.2334 36.1777 54.1729 35.3472 59.5007C35.1187 60.967 35 62.4696 35 64C35 65.7578 35.1564 67.479 35.456 69.1506C36.4311 74.5903 34.9987 80.7433 30.2128 83.5066L17.2177 91.0094C12.4379 93.7691 6.2425 92.1519 4.25818 87.0017C1.50784 79.8633 0 72.1078 0 64C0 56.3008 1.35926 48.919 3.85115 42.0818C5.762 36.8388 12.0261 35.148 16.8589 37.9381L30.0221 45.5374Z" fill="#F8ED31"/>
<path d="M110.782 36.9895C115.561 34.2299 121.757 35.847 123.741 40.997C126.492 48.1358 128 55.8917 128 64C128 71.699 126.64 79.0803 124.148 85.9173C122.237 91.1602 115.973 92.851 111.14 90.0609L97.9768 82.4615C93.307 79.7656 91.8216 73.8264 92.6526 68.4987C92.8813 67.0327 93 65.5302 93 64C93 62.2419 92.8435 60.5205 92.5438 58.8487C91.5684 53.4089 93.0005 47.2556 97.7867 44.4922L110.782 36.9895Z" fill="#3C52A8"/>
<path d="M63 25.3517C63 30.7427 58.6001 34.9943 53.5699 36.9334C50.5161 38.1106 47.7117 39.7896 45.2578 41.8695C41.0475 45.438 35.0085 47.2613 30.2288 44.5017L17.2338 36.9989C12.4477 34.2356 10.7559 28.0512 14.2336 23.7561C23.7566 11.9944 37.3647 3.67596 52.8993 0.959392C58.3986 -0.00228301 63 4.57941 63 10.1622V25.3517Z" fill="#EE0001"/>
<path d="M64 10C64 4.47715 68.5054 -0.0821074 73.962 0.770764C89.5709 3.21044 103.31 11.2917 113.029 22.863C116.622 27.1418 114.96 33.4226 110.121 36.2164L96.9588 43.8151C92.2955 46.5074 86.4162 44.8362 82.2311 41.4479C79.7318 39.4245 76.8895 37.8082 73.8049 36.6999C68.6074 34.8324 64 30.5228 64 25V10Z" fill="#EF008D"/>
<path d="M31.29 84.6172C35.7006 82.071 41.3506 83.619 45.4531 86.9404C47.9955 88.9988 50.8878 90.6429 54.0264 91.7705C59.125 93.6024 63.5 97.7774 63.5 103V118C63.5 123.272 59.2156 127.532 54.1152 126.735C38.6291 124.315 24.9971 116.297 15.3535 104.814C11.9954 100.816 13.5084 94.8831 18.1279 92.2158L31.29 84.6172ZM83.0645 86.5107C87.1935 83.0109 93.0001 81.3208 97.5205 83.9307L110.516 91.4336C115.084 94.0715 116.627 99.9143 113.377 103.929C103.928 115.599 90.4263 123.852 75.0146 126.547C69.8755 127.446 65.5 123.167 65.5 117.837V102.647C65.5 97.5492 69.6779 93.4337 74.6104 91.5322C77.7168 90.3346 80.5688 88.6261 83.0645 86.5107ZM4.32129 42.2529C6.10678 37.3543 11.9954 35.7074 16.6094 38.3711L29.7725 45.9707C34.1886 48.5205 35.6679 54.1994 34.8535 59.4238C34.621 60.9154 34.5 62.4438 34.5 64C34.5 65.7875 34.659 67.5387 34.9639 69.2393C35.9203 74.5758 34.4887 80.46 29.9629 83.0732L16.9678 90.5762C12.4049 93.2106 6.57916 91.6351 4.72461 86.8223C1.99601 79.7403 0.5 72.0453 0.5 64C0.5 56.3601 1.8491 49.0361 4.32129 42.2529ZM111.031 37.4229C115.594 34.7884 121.42 36.3639 123.274 41.1768C126.003 48.259 127.5 55.9541 127.5 64C127.5 71.6397 126.151 78.9633 123.679 85.7461C121.893 90.6448 116.004 92.2917 111.39 89.6279L98.2266 82.0283C93.8105 79.4787 92.3318 73.8003 93.1465 68.5762C93.3791 67.0848 93.5 65.5561 93.5 64C93.5 62.2123 93.3411 60.4614 93.0361 58.7607C92.0792 53.4239 93.5108 47.5381 98.0371 44.9248L111.031 37.4229ZM52.9854 1.45215C58.1245 0.553454 62.5 4.83237 62.5 10.1621V25.3516C62.5 30.4498 58.3221 34.5654 53.3896 36.4668C50.2829 37.6644 47.4304 39.3728 44.9346 41.4883C40.8055 44.988 34.9989 46.6782 30.4785 44.0684L17.4834 36.5654C12.915 33.9275 11.3718 28.0847 14.6221 24.0703C24.0714 12.3997 37.5736 4.14728 52.9854 1.45215ZM64.5 10C64.5 4.72802 68.7844 0.467487 73.8848 1.26465C89.3704 3.68506 103.002 11.7028 112.646 23.1846C116.004 27.183 114.49 33.116 109.87 35.7832L96.709 43.3818C92.2986 45.9281 86.6483 44.3808 82.5459 41.0596C80.0037 39.0014 77.1119 37.3571 73.9736 36.2295C68.8751 34.3975 64.5 30.2226 64.5 25V10Z" stroke="#181414" stroke-opacity="0.88"/>
</g>
<defs>
<clipPath id="clip0_279_852">
<rect width="128" height="128" fill="white"/>
</clipPath>
</defs>
</svg>

